<?xml version="1.0" standalone="no"?><!DOCTYPE svg PUBLIC "-//W3C//DTD SVG 1.1//EN" "http://www.w3.org/Graphics/SVG/1.1/DTD/svg11.dtd"><svg class="icon" width="128px" height="128.00px" viewBox="0 0 1024 1024" version="1.1" xmlns="http://www.w3.org/2000/svg"><path d="M929.472 476.224c0-92.224-56.704-164.416-129.024-164.416-15.36 0-30.016 3.456-43.584 9.536 13.056-25.728 20.736-56.256 20.736-89.152 0-90.688-57.92-164.48-129.024-164.48-55.168 0-102.144 44.416-120.64 106.56-18.368-62.144-65.28-106.56-120.32-106.56-71.168 0-129.024 73.792-129.024 164.48 0 10.688 0.896 21.056 2.368 31.168-17.28-11.136-36.736-17.536-57.408-17.536-71.168 0-129.024 73.792-129.024 164.48 0 90.688 57.92 164.416 129.024 164.416 18.88 0 36.8-5.376 52.928-14.72-57.664 64.512-96 120.384-98.24 123.712-1.856 2.56-44.864 62.784-32.512 133.824 7.552 43.264 33.408 80.32 76.928 110.208 7.808 6.4 38.912 28.544 95.232 28.544 38.528 0 80.704-10.432 124.672-30.784 3.904-1.408 21.44-4.032 60.288-4.032 33.536 0 70.016 2.112 86.72 5.056 4.288 0.768 12.736 4.288 20.864 7.744 21.76 9.152 51.52 21.696 87.872 21.696 34.24 0 67.776-11.456 99.52-34.112 37.824-26.88 59.904-59.52 65.6-97.088 7.232-47.936-12.48-101.44-60.16-163.584-5.568-7.296-11.392-14.592-17.344-21.888 4.736 0.704 9.6 1.088 14.464 1.088 72.384 0 129.088-72.128 129.088-164.16z m-50.496 0c0 62.656-35.264 113.664-78.528 113.664-42.368 0-78.208-52.032-78.208-113.664 0-62.848 35.072-113.92 78.208-113.92 43.264 0 78.528 51.136 78.528 113.92z m-230.4-358.016c42.56 0 78.528 52.224 78.528 113.984s-35.968 113.984-78.528 113.984-78.528-52.224-78.528-113.984c0-61.824 35.968-113.984 78.528-113.984z m-240.896 0c42.368 0 78.208 52.224 78.208 113.984s-35.84 113.984-78.208 113.984c-42.56 0-78.528-52.224-78.528-113.984-0.064-61.824 35.968-113.984 78.528-113.984z m-184.128 406.08c-42.56 0-78.528-52.16-78.528-113.92 0-61.824 35.968-113.984 78.528-113.984 42.368 0 78.208 52.224 78.208 113.984s-35.776 113.92-78.208 113.92zM813.504 817.28c-3.584 23.808-18.304 44.544-44.928 63.488-23.424 16.64-46.4 24.768-70.336 24.768-26.112 0-49.472-9.856-68.224-17.728-11.776-4.928-21.888-9.216-31.808-10.944-19.84-3.52-58.176-5.824-95.424-5.824-61.952 0-75.968 6.272-80.832 8.448-37.952 17.536-72.96 26.368-104.128 26.368-42.432 0-62.4-16.448-62.912-16.832l-2.752-2.24c-32.32-21.952-51.328-48.064-56.576-77.504-8.896-49.728 23.296-95.424 24-96.448 0.96-1.408 95.744-139.328 209.088-228.992 25.408-20.16 50.24-30.4 73.728-30.4 40.256 0 66.048 30.72 66.176 30.912l2.688 2.88c1.152 1.088 118.784 108.992 191.936 204.672 38.912 50.752 55.36 91.712 50.304 125.376z m-207.04-366.272c-7.872-9.024-45.376-48.064-104.064-48.064-35.072 0-70.464 13.888-105.088 41.216-24.192 19.136-47.36 40.128-68.992 61.44 14.976-26.88 23.936-59.712 23.936-95.232 0-10.688-0.896-21.184-2.432-31.296 17.472 11.136 37.056 17.6 57.856 17.6 54.976 0 101.888-44.352 120.32-106.496 18.432 62.144 65.472 106.496 120.64 106.496 15.232 0 29.76-3.52 43.328-9.728-12.736 25.6-20.16 56.128-20.16 89.344 0 14.656 1.664 28.8 4.48 42.368-35.456-35.84-63.488-61.888-69.824-67.648z" fill="#8a8a8a" /></svg>